<?xml version="1.0"?>
<svg xmlns="http://www.w3.org/2000/svg" viewBox="0 0 64 64" width="512" height="512"><g id="outline"><path d="M34.581,5.187a.993.993,0,0,0-.691-.181L24.942,6H14a1,1,0,0,0-.588.191l-11,8A1,1,0,0,0,3,16a1.017,1.017,0,0,0,.243-.03L15.123,13H20a1.838,1.838,0,0,0,.03.242l1,4c.453,1.812,1.656,6.624,1.009,8.484L21.389,28H18a1,1,0,0,0-.8.4l-2.9,3.863L11.7,34H8V33a1,1,0,0,0-1-1H3a1,1,0,0,0-1,1V49a1,1,0,0,0,1,1H7a1,1,0,0,0,1-1V48h3.7l2.748,1.832A1.006,1.006,0,0,0,15,50h2.612l-.54,1.62a5.978,5.978,0,0,0-.214,4.545,3,3,0,0,0,1.826,1.783h0a3.619,3.619,0,0,0,1.137.179,4.534,4.534,0,0,0,4.128-2.812l.285-.855A8.994,8.994,0,0,0,29.4,56.648a4.367,4.367,0,0,0,1.885-.419c4.853-2.294,4.775-13.719,4.723-21.279C36,34.255,36,33.6,36,33c0-7.9-6.363-14.167-8.61-16.136l-.078-.211h0L26,12.833V12.78l7.062-1.764,7.814.976a1,1,0,0,0,.705-1.805ZM20,11H15a1,1,0,0,0-.243.03L7.75,12.781,14.325,8H20ZM6,48H4V34H6ZM24.946,16H22.781l-.5-2h2ZM22,12V8h2v4Zm.063,42.648a2.43,2.43,0,0,1-2.747,1.4.988.988,0,0,1-.61-.652,3.306,3.306,0,0,1-.194-1.4H22.28ZM22.946,52H19.054l.667-2h3.891Zm5.719-31C31.1,23.777,34,28.1,34,33c0,.6,0,1.264.009,1.964.043,6.188.121,17.708-3.578,19.456-1.292.609-3.152-.064-5.524-1.978L25.721,50H27a3,3,0,0,0,3-3,2.967,2.967,0,0,0-.4-1.471A2.971,2.971,0,0,0,30.22,41a2.931,2.931,0,0,0,.379-3.471A2.994,2.994,0,0,0,29,32h-.867L29,25.083A13.616,13.616,0,0,0,28.665,21ZM29,34a1,1,0,0,1,0,2H20v2h8a1,1,0,0,1,0,2H20v2h8a1,1,0,0,1,0,2H20v2h7a1,1,0,0,1,0,2H15.3l-2.748-1.832A1.006,1.006,0,0,0,12,46H8V36h4a1.006,1.006,0,0,0,.555-.168l3-2A1,1,0,0,0,15.8,33.6L18.5,30h2.317l-.778,2.726A1,1,0,0,0,21,34Zm-1.992-9.124L26.117,32H22.325l1.619-5.67c.646-1.851.112-5.021-.672-8.33H25.64l.049.041A16.543,16.543,0,0,1,27.008,24.876ZM33.124,9.008a.987.987,0,0,0-.367.022L26,10.719V7.9l7.73-.86,3.475,2.482Z"/><path d="M59.882,5.117a9.012,9.012,0,0,0-13.633,0,8.908,8.908,0,0,0-2.174,7.025L45.941,25.2A2.974,2.974,0,0,0,44.78,30a2.954,2.954,0,0,0,0,4,2.974,2.974,0,0,0,1.161,4.8L44.073,51.871a8.9,8.9,0,0,0,2.176,7.012,9.012,9.012,0,0,0,13.633,0,8.911,8.911,0,0,0,2.173-7.025l-1.872-13.1A2.981,2.981,0,0,0,61.22,34a2.954,2.954,0,0,0,0-4,2.981,2.981,0,0,0-1.037-4.755L62.057,12.13A8.907,8.907,0,0,0,59.882,5.117ZM59,27a1,1,0,0,1,0,2H47a1,1,0,0,1,0-2H59ZM50.8,9.035a2.99,2.99,0,0,1,4.525,0,3.48,3.48,0,0,1,.747,2.823L54.2,25H51.932L50.053,11.844A3.471,3.471,0,0,1,50.8,9.035ZM47,31H59a1,1,0,0,1,0,2H47a1,1,0,0,1,0-2Zm0,4H59a1,1,0,0,1,0,2H47a1,1,0,0,1,0-2Zm8.328,19.965a2.99,2.99,0,0,1-4.525,0,3.48,3.48,0,0,1-.748-2.823L51.932,39H54.2l1.879,13.156A3.471,3.471,0,0,1,55.328,54.965Zm3.051,2.6a7.012,7.012,0,0,1-10.628,0,6.9,6.9,0,0,1-1.7-5.421L47.932,39h1.98L48.077,51.844a5.47,5.47,0,0,0,1.2,4.42,4.99,4.99,0,0,0,7.566,0,5.458,5.458,0,0,0,1.207-4.406L56.218,39H58.2l1.875,13.13A6.9,6.9,0,0,1,58.379,57.563Zm1.7-45.7L58.2,25h-1.98l1.835-12.844a5.467,5.467,0,0,0-1.2-4.42,4.99,4.99,0,0,0-7.566,0,5.462,5.462,0,0,0-1.207,4.406L49.912,25h-1.98L46.057,11.871a6.9,6.9,0,0,1,1.694-5.434,7.012,7.012,0,0,1,10.628,0A6.9,6.9,0,0,1,60.075,11.858Z"/></g></svg>
