<?xml version="1.0" encoding="iso-8859-1"?>
<!-- Generator: Adobe Illustrator 19.0.0, SVG Export Plug-In . SVG Version: 6.00 Build 0)  -->
<svg version="1.1" id="Capa_1" xmlns="http://www.w3.org/2000/svg" xmlns:xlink="http://www.w3.org/1999/xlink" x="0px" y="0px"
	 viewBox="0 0 415.361 415.361" style="enable-background:new 0 0 415.361 415.361;" xml:space="preserve">
<g>
	<g>
		<path d="M415.32,342.916c-1.155-31.805-26.671-57.321-58.476-58.476v-0.4h-29.84V70.2c-0.044-33.472-27.168-60.596-60.64-60.64
			H60.684C27.149,9.58-0.02,36.782,0,70.317C0.02,103.851,27.222,131.02,60.756,131c16.927-0.01,33.082-7.086,44.567-19.52v233.6
			c0,33.504,27.137,60.676,60.64,60.72h190.88C390.356,404.583,416.537,376.429,415.32,342.916z M266.364,25.56
			c24.636,0.044,44.596,20.004,44.64,44.64v213.84h-144.96c-16.974-0.083-33.202,6.971-44.72,19.44V70.2
			c-0.022-16.995-7.194-33.197-19.76-44.64L266.364,25.56z M60.684,114.92c-24.698,0.044-44.756-19.942-44.8-44.64
			s19.942-44.756,44.64-44.8c24.698-0.044,44.756,19.942,44.8,44.64c0,0.027,0,0.053,0,0.08
			C105.324,94.867,85.35,114.876,60.684,114.92z M166.044,389.4c-24.698,0.044-44.756-19.942-44.8-44.64s19.942-44.756,44.64-44.8
			s44.756,19.942,44.8,44.64c0,0.027,0,0.053,0,0.08C210.684,369.347,190.71,389.356,166.044,389.4z M356.924,389.48h-150
			c24.676-22.447,26.484-60.647,4.037-85.323c-1.281-1.409-2.628-2.756-4.037-4.037h149.92c16.579,0.071,31.759,9.308,39.44,24
			h-49.2c-4.418,0-8,3.582-8,8s3.582,8,8,8h54.16c0.187,1.54,0.294,3.089,0.32,4.64C401.564,369.427,381.59,389.436,356.924,389.48z
			"/>
	</g>
</g>
<g>
	<g>
		<path d="M250.044,62.2h-75.44c-4.418,0-8,3.582-8,8c0,4.418,3.582,8,8,8h75.44c4.418,0,8-3.582,8-8
			C258.044,65.782,254.462,62.2,250.044,62.2z"/>
	</g>
</g>
<g>
	<g>
		<path d="M287.804,103.48h-146.4c-4.418,0-8,3.582-8,8s3.582,8,8,8h146.4c4.418,0,8-3.582,8-8S292.222,103.48,287.804,103.48z"/>
	</g>
</g>
<g>
	<g>
		<path d="M287.804,146.84h-146.4c-4.418,0-8,3.582-8,8s3.582,8,8,8h146.4c4.418,0,8-3.582,8-8S292.222,146.84,287.804,146.84z"/>
	</g>
</g>
<g>
	<g>
		<path d="M287.804,190.52h-146.4c-4.418,0-8,3.582-8,8s3.582,8,8,8h146.4c4.418,0,8-3.582,8-8S292.222,190.52,287.804,190.52z"/>
	</g>
</g>
<g>
	<g>
		<path d="M287.804,234.2h-146.4c-4.418,0-8,3.582-8,8s3.582,8,8,8h146.4c4.418,0,8-3.582,8-8S292.222,234.2,287.804,234.2z"/>
	</g>
</g>
<g>
</g>
<g>
</g>
<g>
</g>
<g>
</g>
<g>
</g>
<g>
</g>
<g>
</g>
<g>
</g>
<g>
</g>
<g>
</g>
<g>
</g>
<g>
</g>
<g>
</g>
<g>
</g>
<g>
</g>
</svg>
